
<svg width="196px" height="202px" viewBox="0 0 196 202" version="1.1" xmlns="http://www.w3.org/2000/svg" xmlns:xlink="http://www.w3.org/1999/xlink">
    <g id="SwitchUp" stroke="none" stroke-width="1" fill="none" fill-rule="evenodd">
        <g id="Artboard" transform="translate(-64, -55)" fill="#F05C68">
            <path d="M234.75,55 C248.69519,55 260,66.3048101 260,80.25 L260,177.365385 C260,191.310575 248.69519,202.615385 234.75,202.615385 L211.485,202.615 L211.485149,231.75 C211.485149,245.69519 200.180338,257 186.235149,257 L89.25,257 C75.3048101,257 64,245.69519 64,231.75 L64,134.634615 C64,120.689425 75.3048101,109.384615 89.25,109.384615 L112.514,109.384 L112.514851,80.25 C112.514851,66.3048101 123.819662,55 137.764851,55 L234.75,55 Z M186.235149,109.384615 L112.514,109.384 L112.514851,177.365385 C112.514851,191.171123 123.594696,202.389024 137.347297,202.612002 L137.764851,202.615385 L211.485,202.615 L211.485149,134.634615 C211.485149,120.828877 200.405304,109.610976 186.652703,109.387998 L186.235149,109.384615 Z" id="Combined-Shape"></path>
        </g>
    </g>
</svg>